<svg width="24" height="24" viewBox="0 0 24 24" fill="none" xmlns="http://www.w3.org/2000/svg">
<path d="M13.125 4.21894V7.575C13.125 8.03004 13.125 8.25756 13.2136 8.43137C13.2915 8.58425 13.4158 8.70855 13.5686 8.78644C13.7424 8.875 13.97 8.875 14.425 8.875H17.7811M18 10.4904V16.35C18 17.7151 18 18.3977 17.7343 18.9191C17.5006 19.3777 17.1277 19.7506 16.6691 19.9843C16.1477 20.25 15.4651 20.25 14.1 20.25H8.9C7.53487 20.25 6.85231 20.25 6.3309 19.9843C5.87225 19.7506 5.49936 19.3777 5.26567 18.9191C5 18.3977 5 17.7151 5 16.35V7.9C5 6.53487 5 5.85231 5.26567 5.3309C5.49936 4.87225 5.87225 4.49936 6.3309 4.26567C6.85231 4 7.53487 4 8.9 4H11.5096C12.1058 4 12.4039 4 12.6844 4.06735C12.9331 4.12706 13.1709 4.22554 13.3889 4.35919C13.6349 4.50993 13.8457 4.72071 14.2673 5.14228L16.8577 7.73272C17.2793 8.15429 17.4901 8.36507 17.6408 8.61106C17.7745 8.82914 17.8729 9.06691 17.9327 9.31562C18 9.59615 18 9.89424 18 10.4904Z" stroke="white" stroke-width="1.5" stroke-linecap="round" stroke-linejoin="round"/>
</svg>
